<svg data-v-423bf9ae="" xmlns="http://www.w3.org/2000/svg" viewBox="0 0 2833 2668" class="iconLeft"><!----><!----><!----><g data-v-423bf9ae="" id="67c69c9b-82f7-42ec-b834-93d87b2cf327" fill="black" transform="matrix(4.576658825829835,0,0,4.576658825829835,2683.9333695249884,1286.3145263526094)"><path d="M3.92 16.95C5.94 16.95 7.10 15.85 7.10 13.78L7.10 6.64L6.17 6.64L6.08 7.43L6.03 7.43C5.43 6.83 4.75 6.47 3.95 6.47C2.30 6.47 0.84 7.87 0.84 10.11C0.84 12.36 2.03 13.71 3.78 13.71C4.62 13.71 5.46 13.23 5.99 12.64L5.98 13.78C5.96 15.44 5.22 16.03 3.92 16.03C3.23 16.03 2.45 15.83 1.75 14.94L1.19 15.64C2.07 16.69 3.04 16.95 3.92 16.95ZM4.03 12.75C2.79 12.75 2.02 11.72 2.02 10.09C2.02 8.54 3.00 7.43 4.14 7.43C4.75 7.43 5.33 7.67 5.95 8.29L5.95 11.66C5.33 12.38 4.69 12.75 4.03 12.75ZM12.74 13.96C14.69 13.96 15.76 12.99 15.76 11.83C15.76 10.75 14.88 10.19 13.05 9.70C11.82 9.38 10.98 9.02 10.98 8.43C10.98 7.85 11.38 7.36 12.66 7.36C13.50 7.36 14.22 7.67 14.83 8.12L15.39 7.36C14.71 6.89 13.68 6.47 12.66 6.47C10.78 6.47 9.80 7.35 9.80 8.48C9.80 9.48 10.99 10.14 12.39 10.50C14.06 10.93 14.60 11.34 14.60 11.90C14.60 12.54 14 13.05 12.78 13.05C11.56 13.05 10.72 12.67 9.97 12.08L9.41 12.84C10.23 13.44 11.41 13.96 12.74 13.96ZM22.30 13.96C23.04 13.96 23.83 13.76 24.44 13.52L24.19 12.68C23.72 12.88 23.20 13.01 22.55 13.01C21.24 13.01 20.83 12.32 20.83 11.03L20.83 7.57L24.18 7.57L24.18 6.64L20.83 6.64L20.83 3.84L19.73 4.54L19.73 6.64L17.77 6.64L17.77 7.57L19.68 7.57L19.68 11.02C19.68 12.77 20.33 13.96 22.30 13.96ZM29.54 13.96C31.49 13.96 32.56 12.99 32.56 11.83C32.56 10.75 31.68 10.19 29.85 9.70C28.62 9.38 27.78 9.02 27.78 8.43C27.78 7.85 28.18 7.36 29.46 7.36C30.30 7.36 31.02 7.67 31.63 8.12L32.19 7.36C31.51 6.89 30.48 6.47 29.46 6.47C27.58 6.47 26.60 7.35 26.60 8.48C26.60 9.48 27.79 10.14 29.19 10.50C30.86 10.93 31.40 11.34 31.40 11.90C31.40 12.54 30.80 13.05 29.58 13.05C28.36 13.05 27.52 12.67 26.77 12.08L26.21 12.84C27.03 13.44 28.21 13.96 29.54 13.96Z"></path></g><!----><g data-v-423bf9ae="" id="da2580bd-c761-452e-b7ef-5b47852756cd" transform="matrix(5.444444444444445,0,0,5.444444444444445,-538.8888888888889,-59.77777777777783)" stroke="none" fill="black"><path d="M584 221H104c-2.8 0-5-2.2-5-5V16c0-2.8 2.2-5 5-5h480c2.8 0 5 2.2 5 5v200c0 2.8-2.2 5-5 5zm-475-10h470V21H109v190z"></path><path d="M204 161c-24.8 0-45-20.2-45-45s20.2-45 45-45 45 20.2 45 45-20.2 45-45 45zm0-80c-19.3 0-35 15.7-35 35s15.7 35 35 35 35-15.7 35-35-15.7-35-35-35zM344 161c-24.8 0-45-20.2-45-45s20.2-45 45-45 45 20.2 45 45-20.2 45-45 45zm0-80c-19.3 0-35 15.7-35 35s15.7 35 35 35 35-15.7 35-35-15.7-35-35-35zM484 161c-24.8 0-45-20.2-45-45s20.2-45 45-45 45 20.2 45 45-20.2 45-45 45zm0-80c-19.3 0-35 15.7-35 35s15.7 35 35 35 35-15.7 35-35-15.7-35-35-35zM344 501c-80 0-145-65-145-145s65-145 145-145 145 65 145 145-65 145-145 145zm0-280c-74.4 0-135 60.6-135 135s60.6 135 135 135 135-60.6 135-135-60.6-135-135-135z"></path><path d="M284 401c-.5 0-1-.1-1.4-.2-1.3-.4-2.4-1.3-3-2.5l-20-40c-1.2-2.5-.2-5.5 2.2-6.7 2.5-1.2 5.5-.2 6.7 2.2l17.6 35.3 135.4-77.4c2.4-1.4 5.5-.5 6.8 1.9 1.4 2.4.5 5.5-1.9 6.8l-140 80c-.7.4-1.5.6-2.4.6z"></path></g><!----></svg>