<svg data-v-423bf9ae="" xmlns="http://www.w3.org/2000/svg" viewBox="0 0 60 60" class="icon"><!----><!----><!----><!----><g data-v-423bf9ae="" id="6673de1f-6d60-4cae-bc22-839eac528c34" transform="matrix(0.12244897959183673,0,0,0.12244897959183673,-12.122448979591837,-1.3469387755102034)" stroke="none" fill="white"><path d="M584 221H104c-2.8 0-5-2.2-5-5V16c0-2.8 2.2-5 5-5h480c2.8 0 5 2.2 5 5v200c0 2.8-2.2 5-5 5zm-475-10h470V21H109v190z"></path><path d="M204 161c-24.8 0-45-20.2-45-45s20.2-45 45-45 45 20.2 45 45-20.2 45-45 45zm0-80c-19.3 0-35 15.7-35 35s15.7 35 35 35 35-15.7 35-35-15.7-35-35-35zM344 161c-24.8 0-45-20.2-45-45s20.2-45 45-45 45 20.2 45 45-20.2 45-45 45zm0-80c-19.3 0-35 15.7-35 35s15.7 35 35 35 35-15.7 35-35-15.7-35-35-35zM484 161c-24.8 0-45-20.2-45-45s20.2-45 45-45 45 20.2 45 45-20.2 45-45 45zm0-80c-19.3 0-35 15.7-35 35s15.7 35 35 35 35-15.7 35-35-15.7-35-35-35zM344 501c-80 0-145-65-145-145s65-145 145-145 145 65 145 145-65 145-145 145zm0-280c-74.4 0-135 60.6-135 135s60.6 135 135 135 135-60.6 135-135-60.6-135-135-135z"></path><path d="M284 401c-.5 0-1-.1-1.4-.2-1.3-.4-2.4-1.3-3-2.5l-20-40c-1.2-2.5-.2-5.5 2.2-6.7 2.5-1.2 5.5-.2 6.7 2.2l17.6 35.3 135.4-77.4c2.4-1.4 5.5-.5 6.8 1.9 1.4 2.4.5 5.5-1.9 6.8l-140 80c-.7.4-1.5.6-2.4.6z"></path></g><!----></svg>