<svg data-v-fde0c5aa="" xmlns="http://www.w3.org/2000/svg" viewBox="0 0 300 300" class="icon"><!----><defs data-v-fde0c5aa=""><!----></defs><rect data-v-fde0c5aa="" fill="transparent" x="0" y="0" width="300px" height="300px" class="logo-background-square"></rect><!----><defs data-v-fde0c5aa=""><linearGradient data-v-fde0c5aa="" gradientTransform="rotate(25)" id="2aaea543-262a-4d94-a1da-001ddabb35c9" x1="0%" y1="0%" x2="100%" y2="0%"><stop data-v-fde0c5aa="" offset="0%" stop-color="#20484F" stop-opacity="1"></stop><stop data-v-fde0c5aa="" offset="100%" stop-color="#4E9BAB" stop-opacity="1"></stop></linearGradient></defs><g data-v-fde0c5aa="" id="f5ae98e4-f704-4097-8a7e-e948fe09729e" fill="url(#2aaea543-262a-4d94-a1da-001ddabb35c9)" stroke="none" transform="matrix(2.227272727272727,0,0,2.227272727272727,-616.1818181818181,-420.18181818181813)"><path d="M584 221H104c-2.8 0-5-2.2-5-5V16c0-2.8 2.2-5 5-5h480c2.8 0 5 2.2 5 5v200c0 2.8-2.2 5-5 5zm-475-10h470V21H109v190z"></path><path d="M204 161c-24.8 0-45-20.2-45-45s20.2-45 45-45 45 20.2 45 45-20.2 45-45 45zm0-80c-19.3 0-35 15.7-35 35s15.7 35 35 35 35-15.7 35-35-15.7-35-35-35zM344 161c-24.8 0-45-20.2-45-45s20.2-45 45-45 45 20.2 45 45-20.2 45-45 45zm0-80c-19.3 0-35 15.7-35 35s15.7 35 35 35 35-15.7 35-35-15.7-35-35-35zM484 161c-24.8 0-45-20.2-45-45s20.2-45 45-45 45 20.2 45 45-20.2 45-45 45zm0-80c-19.3 0-35 15.7-35 35s15.7 35 35 35 35-15.7 35-35-15.7-35-35-35zM344 501c-80 0-145-65-145-145s65-145 145-145 145 65 145 145-65 145-145 145zm0-280c-74.4 0-135 60.6-135 135s60.6 135 135 135 135-60.6 135-135-60.6-135-135-135z"></path><path d="M284 401c-.5 0-1-.1-1.4-.2-1.3-.4-2.4-1.3-3-2.5l-20-40c-1.2-2.5-.2-5.5 2.2-6.7 2.5-1.2 5.5-.2 6.7 2.2l17.6 35.3 135.4-77.4c2.4-1.4 5.5-.5 6.8 1.9 1.4 2.4.5 5.5-1.9 6.8l-140 80c-.7.4-1.5.6-2.4.6z"></path></g><!----></svg>